Coordinates
version=1
nRows=15
nColumns=46
inDegrees=yes

Units are S.I. units (second, meters, Newtons, ...)
Angles are in degrees.

endheader
time	pelvis_tilt	pelvis_list	pelvis_rotation	pelvis_tx	pelvis_ty	pelvis_tz	bb_angle	bb_tx	bb_ty	bb_tz	hip_flexion_r	hip_adduction_r	hip_rotation_r	knee_angle_r	knee_angle_r_beta	ankle_angle_r	subtalar_angle_r	mtp_angle_r	crank_angle_r	hip_flexion_l	hip_adduction_l	hip_rotation_l	knee_angle_l	knee_angle_l_beta	ankle_angle_l	subtalar_angle_l	mtp_angle_l	crank_angle_l	lumbar_extension	lumbar_bending	lumbar_rotation	arm_flex_r	arm_add_r	arm_rot_r	elbow_flex_r	pro_sup_r	wrist_flex_r	wrist_dev_r	arm_flex_l	arm_add_l	arm_rot_l	elbow_flex_l	pro_sup_l	wrist_flex_l	wrist_dev_l
      7.50500000	    -23.88252275	     -6.98438993	     -8.18343702	      0.42163583	      1.20722284	     -0.24086729	      0.00000000	      0.50000000	      0.00000000	      0.25000000	     64.43909454	      7.20807203	      2.74177225	     90.56390654	      1.58063835	     16.37860167	     -1.75447918	      0.00000000	      0.00000000	     19.36184311	    -12.41371319	     -6.09476375	     32.55794690	      0.56824337	    -14.98739168	     -7.54338817	      0.00000000	      0.00000000	    -64.03551027	      7.73643042	      7.05678662	     40.53065337	    -10.31641632	     20.01891058	     92.39590420	     52.04240068	      0.00000000	      0.00000000	     27.34599417	    -17.54788336	      5.25085308	     89.88587943	     54.95664702	      0.00000000	      0.00000000
      7.51000000	    -23.90812920	     -6.48333553	     -8.43034228	      0.42140649	      1.20885991	     -0.24066982	      0.00000000	      0.50000000	      0.00000000	      0.25000000	     63.34099303	      7.11541306	      3.03160721	     88.17711579	      1.53898100	     17.66145792	     -2.97040740	      0.00000000	      0.00000000	     20.60177258	    -11.93990396	     -5.38566149	     35.44743985	      0.61867454	    -15.42697317	     -8.57803754	      0.00000000	      0.00000000	    -64.33090693	      7.16758204	      7.31741811	     40.35225592	    -10.69015005	     19.47692050	     93.25208416	     52.09783394	      0.00000000	      0.00000000	     28.05315834	    -17.13423813	      5.72777461	     89.70662543	     54.96039727	      0.00000000	      0.00000000
      7.51500000	    -23.81472583	     -5.43594975	     -8.99397963	      0.42074776	      1.21037379	     -0.24033200	      0.00000000	      0.50000000	      0.00000000	      0.25000000	     62.21949843	      6.99939333	      4.03858261	     85.75008126	      1.49662125	     18.61692951	     -3.65346829	      0.00000000	      0.00000000	     21.63777591	    -10.92028294	     -5.03858719	     38.13487733	      0.66557917	    -15.91396687	     -9.02530260	      0.00000000	      0.00000000	    -64.55944399	      6.04377507	      6.96386802	     40.46019757	    -10.79266912	     19.32170150	     93.49702491	     52.11903981	      0.00000000	      0.00000000	     28.50590506	    -16.95816244	      5.84287539	     89.65961037	     54.96612010	      0.00000000	      0.00000000
      7.52000000	    -23.81838423	     -4.87707691	     -9.18630390	      0.42082569	      1.21160585	     -0.23998793	      0.00000000	      0.50000000	      0.00000000	      0.25000000	     61.06819256	      6.85403080	      4.34016844	     83.14591057	      1.45116990	     18.95330967	     -5.02595139	      0.00000000	      0.00000000	     22.90222107	    -10.34697777	     -4.39140980	     40.91663232	      0.71412995	    -16.62527483	    -10.18496075	      0.00000000	      0.00000000	    -64.72622115	      5.25221567	      9.41756723	     38.31942969	    -12.97532046	     16.35628119	     96.90571692	     52.34394128	      0.00000000	      0.00000000	     31.40734281	    -15.22459145	      9.23355294	     87.04363270	     55.05033056	      0.00000000	      0.00000000
      7.52500000	    -23.88486457	     -4.01442061	     -9.66124857	      0.42026302	      1.21264231	     -0.23952294	      0.00000000	      0.50000000	      0.00000000	      0.25000000	     60.13572226	      6.73789198	      5.10578420	     80.55513255	      1.40595229	     19.00486321	     -5.85454151	      0.00000000	      0.00000000	     24.22187484	     -9.57834897	     -4.14623563	     43.56564328	      0.76036392	    -17.48068371	    -10.93752317	      0.00000000	      0.00000000	    -64.75801354	      4.30696820	      9.28647947	     38.27045726	    -13.23464111	     16.10118824	     97.24719031	     52.36281586	      0.00000000	      0.00000000	     31.86010868	    -15.00280974	      9.55834486	     86.94496302	     55.09401213	      0.00000000	      0.00000000
      7.53000000	    -23.63635412	     -3.20760947	    -10.01904360	      0.42018461	      1.21388949	     -0.23920147	      0.00000000	      0.50000000	      0.00000000	      0.25000000	     58.91770452	      6.44643939	      5.79780899	     78.08042159	      1.36276044	     18.75152662	     -6.37031299	      0.00000000	      0.00000000	     25.14486120	     -8.81638975	     -4.03525867	     46.03455729	      0.80345459	    -18.35061144	    -11.54573646	      0.00000000	      0.00000000	    -65.22588062	      3.75956130	      8.88264850	     38.51456741	    -13.18418586	     16.11471455	     97.71983281	     52.43235728	      0.00000000	      0.00000000	     32.12874960	    -15.09979673	      9.64058206	     86.84654803	     55.09899250	      0.00000000	      0.00000000
      7.53500000	    -23.34646845	     -2.29185019	    -10.35068165	      0.42014331	      1.21497385	     -0.23872391	      0.00000000	      0.50000000	      0.00000000	      0.25000000	     57.70184848	      5.98607284	      6.61524995	     75.70546103	      1.32130956	     18.47468995	     -6.26105533	      0.00000000	      0.00000000	     25.96038912	     -7.94342103	     -3.97810198	     48.32116628	      0.84336345	    -18.91555759	    -11.58775216	      0.00000000	      0.00000000	    -65.45299725	      2.89191216	      8.35819981	     38.49334628	    -13.30199567	     16.03878856	     97.78352694	     52.43343180	      0.00000000	      0.00000000	     32.29200592	    -14.96817353	      9.75325816	     86.79953969	     55.10595393	      0.00000000	      0.00000000
      7.54000000	    -23.16728536	     -1.42965661	    -10.65947742	      0.41971007	      1.21553716	     -0.23829126	      0.00000000	      0.50000000	      0.00000000	      0.25000000	     56.71112480	      5.58037738	      7.48074293	     73.44152413	      1.28179640	     17.63400852	     -6.39056537	      0.00000000	      0.00000000	     27.00703497	     -7.14981913	     -3.98013541	     50.77088515	      0.88611911	    -19.61462003	    -12.23649157	      0.00000000	      0.00000000	    -65.70928961	      2.36522652	      8.08318039	     38.68256735	    -13.45101530	     16.00735646	     98.33239938	     52.51025953	      0.00000000	      0.00000000	     32.82091854	    -15.13332332	     10.12371813	     86.58321691	     55.12477305	      0.00000000	      0.00000000
      7.54500000	    -22.82916154	     -0.54278643	    -10.86359877	      0.41974431	      1.21615877	     -0.23813799	      0.00000000	      0.50000000	      0.00000000	      0.25000000	     55.50827708	      4.98674651	      8.39709132	     71.17587607	      1.24225339	     17.04030324	     -6.02901141	      0.00000000	      0.00000000	     27.73191747	     -6.26361532	     -4.09604886	     52.94444141	      0.92405482	    -19.92042055	    -12.17669552	      0.00000000	      0.00000000	    -65.89319927	      1.70268247	      7.57580994	     38.59812032	    -13.59864729	     15.92285648	     98.38007271	     52.50867232	      0.00000000	      0.00000000	     32.94710177	    -15.01943015	     10.25105400	     86.50108595	     55.12771076	      0.00000000	      0.00000000
      7.55000000	    -22.56256179	      0.28620448	    -11.16966097	      0.41930934	      1.21634557	     -0.23754247	      0.00000000	      0.50000000	      0.00000000	      0.25000000	     54.45079164	      4.56579368	      9.34874805	     68.94499425	      1.20331715	     15.77578780	     -5.88974350	      0.00000000	      0.00000000	     28.57169987	     -5.63731856	     -4.47966068	     55.30837296	      0.96531321	    -19.67293853	    -12.33769429	      0.00000000	      0.00000000	    -65.99127993	      0.79901245	      8.72701488	     37.39052491	    -15.10714021	     14.28407873	    100.23794011	     52.58894266	      0.00000000	      0.00000000	     35.01372956	    -14.32758531	     12.82509486	     84.45022595	     55.18839864	      0.00000000	      0.00000000
      7.55500000	    -22.24692161	      1.08890336	    -11.28469771	      0.41902238	      1.21631746	     -0.23750074	      0.00000000	      0.50000000	      0.00000000	      0.25000000	     53.30355622	      3.94890135	     10.24750986	     66.75680853	      1.16512611	     14.65938288	     -5.50452233	      0.00000000	      0.00000000	     29.33652583	     -4.84981790	     -4.66038676	     57.61937045	      1.00564773	    -19.19766430	    -12.67344500	      0.00000000	      0.00000000	    -66.09455067	      0.28172950	      8.24593702	     37.33883599	    -15.28636587	     14.16208830	    100.33328458	     52.58783487	      0.00000000	      0.00000000	     35.23538636	    -14.30632437	     12.88648547	     84.33616912	     55.18054015	      0.00000000	      0.00000000
      7.56000000	    -21.98150597	      1.79276909	    -11.35085084	      0.41879392	      1.21595369	     -0.23758304	      0.00000000	      0.50000000	      0.00000000	      0.25000000	     52.17293712	      3.34205788	     10.97626934	     64.55408866	      1.12668139	     13.40173141	     -5.20001158	      0.00000000	      0.00000000	     30.13589617	     -4.19426134	     -4.90077250	     59.94928840	      1.04631247	    -18.44942273	    -13.08891045	      0.00000000	      0.00000000	    -66.04189623	     -0.25483797	      7.79611144	     37.16989438	    -15.52944102	     14.01999076	    100.40522136	     52.58281857	      0.00000000	      0.00000000	     35.48203938	    -14.21403647	     13.12257579	     84.24934965	     55.19792127	      0.00000000	      0.00000000
      7.56500000	    -22.02880835	      2.23611906	    -11.33021116	      0.41835165	      1.21485000	     -0.23764575	      0.00000000	      0.50000000	      0.00000000	      0.25000000	     51.28712455	      2.95085188	     11.47914657	     62.34843890	      1.08818554	     11.90998150	     -5.54037335	      0.00000000	      0.00000000	     31.34405611	     -3.85794217	     -4.97944608	     62.48477252	      1.09056501	    -17.37203982	    -13.21674358	      0.00000000	      0.00000000	    -65.55588128	     -1.12251282	      9.94511792	     34.65144936	    -17.76539042	     11.09912262	    102.59108862	     52.58864503	      0.00000000	      0.00000000	     37.83025481	    -12.49378172	     16.40135189	     81.20198847	     55.19780601	      0.00000000	      0.00000000
      7.57000000	    -21.81178142	      2.86739426	    -11.18617340	      0.41793363	      1.21393046	     -0.23788886	      0.00000000	      0.50000000	      0.00000000	      0.25000000	     50.12579099	      2.22442363	     12.02244354	     60.21016231	      1.05086558	     10.62116777	     -5.22049224	      0.00000000	      0.00000000	     32.22083776	     -3.28422414	     -5.23176263	     64.81077370	      1.13116139	    -16.35054172	    -13.64910104	      0.00000000	      0.00000000	    -65.44309430	     -1.35385462	      9.45674478	     34.45547531	    -17.94515731	     10.97463530	    102.65544626	     52.58348138	      0.00000000	      0.00000000	     37.93508679	    -12.55262760	     16.51511827	     81.08183226	     55.19869953	      0.00000000	      0.00000000
      7.57500000	    -21.82791779	      3.18882349	    -10.85972551	      0.41725973	      1.21254957	     -0.23807052	      0.00000000	      0.50000000	      0.00000000	      0.25000000	     49.01369629	      1.73622452	     12.19271535	     57.91386828	      1.01078768	      9.10195344	     -6.04998567	      0.00000000	      0.00000000	     33.43803354	     -3.09245223	     -5.26326655	     67.32968765	      1.17512473	    -15.04513449	    -13.49865813	      0.00000000	      0.00000000	    -65.09010254	     -1.30534496	      9.40759556	     34.01090740	    -18.31424101	     10.69648575	    102.85443558	     52.57554866	      0.00000000	      0.00000000	     38.19254333	    -12.59583093	     17.21980851	     80.62978790	     55.23943927	      0.00000000	      0.00000000
